# xmcd
#
# Track frame offsets: 
#        150
#        35215
#        62012
#        72730
#        98810
#        116590
#        134255
#        156880
#        167402
#        183145
#
# Disc length: 2773 seconds
#
# Revision: 0
# Processed by: cddbd v1.5.2PL0 Copyright (c) Steve Scherf et al.
# Submitted via: ExactAudioCopy v0.99pb5
#
DISCID=890ad30a
DTITLE=George Semper - Fever
DYEAR=1997
DGENRE=Blues
TTITLE0=Fever
TTITLE1=Market Street East
TTITLE2=Lucille
TTITLE3=Blue Dolphin
TTITLE4=Pretty Lady
TTITLE5=Sick and Tired
TTITLE6=Brother Worm
TTITLE7=Sittin' in My Lala
TTITLE8=Shortin' Bread
TTITLE9=Funky Mama
EXTD=
EXTT0=
EXTT1=
EXTT2=
EXTT3=
EXTT4=
EXTT5=
EXTT6=
EXTT7=
EXTT8=
EXTT9=
PLAYORDER=
